# File created by Blade
# Date/Time:  Tue Apr 07 21:32:54 2015
#---------------------------------------------------------
:version 1.10
:name HOM
:units
  mass 1.0
  length 1.000000
  angle deg
:documentation
     Acclaim Skeleton File
:root
   axis xyz
   order TX TY TZ RX RY RZ
   position 0.000000 0.000000 0.000000
   orientation 0 0 0
:bonedata
   begin
      id 1
      name Spine_dum
      direction 0.000000 1.000000 0.000000
      length 4.885285
      axis 0.0 0.0 0.0 xyz
   end
   begin
      id 2
      name LeftUpLeg_dum
      direction 1.000000 0.000000 0.000000
      length 2.672193
      axis 0.0 0.0 0.0 xyz
   end
   begin
      id 3
      name RightUpLeg_dum
      direction -1.000000 0.000000 0.000000
      length 2.672193
      axis 0.0 0.0 0.0 xyz
   end
   begin
      id 4
      name Spine
      direction 0.000000 1.000000 0.000000
      length 0.000000
      axis 0.0 0.0 0.0 xyz
      dof rx ry rz
   end
   begin
      id 5
      name Spine_dum1
      direction 0.000000 1.000000 0.000000
      length 16.494159
      axis 0.0 0.0 0.0 xyz
   end
   begin
      id 6
      name Spine_dum2
      direction 0.000000 1.000000 0.000000
      length 10.663448
      axis 0.0 0.0 0.0 xyz
   end
   begin
      id 7
      name Spine_dum3
      direction 0.000000 1.000000 0.000000
      length 10.663448
      axis 0.0 0.0 0.0 xyz
   end
   begin
      id 8
      name Head
      direction 0.000000 1.000000 0.000000
      length 4.527550
      axis 0.0 0.0 0.0 xyz
      dof rx ry rz
   end
   begin
      id 9
      name LeftShoulder
      direction 1.000000 0.000000 0.000000
      length 7.531907
      axis 0.0 0.0 -90.0 xyz
      dof rx ry rz
   end
   begin
      id 10
      name LeftArm
      direction 1.000000 0.000000 0.000000
      length 10.229199
      axis 0.0 0.0 -90.0 xyz
      dof rx ry rz
   end
   begin
      id 11
      name LeftForeArm
      direction 1.000000 0.000000 0.000000
      length 8.673495
      axis 0.0 0.0 -90.0 xyz
      dof ry rz rx
   end
   begin
      id 12
      name LeftHand
      direction 0.000000 0.000000 0.000000
      length 0.000000
      axis 0.0 0.0 -90.0 xyz
      dof rx ry rz
   end
   begin
      id 13
      name LeftHand_dum1
      direction 0.000000 0.000000 0.000000
      length 0.000000
      axis 0.0 0.0 -90.0 xyz
   end
   begin
      id 14
      name LeftHand_dum2
      direction 1.000000 0.000000 0.000000
      length 3.937000
      axis 0.0 0.0 -90.0 xyz
   end
   begin
      id 15
      name LeftHandThumb1
      direction 0.000000 0.000000 1.000000
      length 3.937000
      axis 0.0 0.0 -90.0 xyz
      dof rx rz ry
   end
   begin
      id 16
      name RightShoulder
      direction -1.000000 0.000000 0.000000
      length 7.531907
      axis 0.0 0.0 90.0 xyz
      dof rx ry rz
   end
   begin
      id 17
      name RightArm
      direction -1.000000 0.000000 0.000000
      length 10.229199
      axis 0.0 0.0 90.0 xyz
      dof rx ry rz
   end
   begin
      id 18
      name RightForeArm
      direction -1.000000 0.000000 0.000000
      length 8.673495
      axis 0.0 0.0 90.0 xyz
      dof ry rz rx
   end
   begin
      id 19
      name RightHand
      direction 0.000000 0.000000 0.000000
      length 0.000000
      axis 0.0 0.0 90.0 xyz
      dof rx ry rz
   end
   begin
      id 20
      name RightHand_dum1
      direction 0.000000 0.000000 0.000000
      length 0.000000
      axis 0.0 0.0 90.0 xyz
   end
   begin
      id 21
      name RightHand_dum2
      direction -1.000000 0.000000 0.000000
      length 3.937000
      axis 0.0 0.0 90.0 xyz
   end
   begin
      id 22
      name RightHandThumb1
      direction 0.000000 0.000000 1.000000
      length 3.937000
      axis 0.0 0.0 90.0 xyz
      dof rx rz ry
   end
   begin
      id 23
      name LeftUpLeg
      direction 0.000000 -1.000000 0.000000
      length 16.263388
      axis 0.0 0.0 0.0 xyz
      dof rx ry rz
   end
   begin
      id 24
      name LeftLeg
      direction 0.000000 -1.000000 0.000000
      length 14.328163
      axis 0.0 0.0 0.0 xyz
      dof rx ry rz
   end
   begin
      id 25
      name LeftFoot
      direction 0.000000 -0.258819 0.965926
      length 5.031290
      axis 15.0 0.0 0.0 xyz
      dof rx ry rz
   end
   begin
      id 26
      name LeftToeBase
      direction 0.000000 0.000000 1.000000
      length 2.952750
      axis 0.0 0.0 0.0 xyz
      dof rx ry rz
   end
   begin
      id 27
      name RightUpLeg
      direction 0.000000 -1.000000 0.000000
      length 16.263388
      axis 0.0 0.0 0.0 xyz
      dof rx ry rz
   end
   begin
      id 28
      name RightLeg
      direction 0.000000 -1.000000 0.000000
      length 14.328163
      axis 0.0 0.0 0.0 xyz
      dof rx ry rz
   end
   begin
      id 29
      name RightFoot
      direction 0.000000 -0.258819 0.965926
      length 5.031290
      axis 15.0 0.0 0.0 xyz
      dof rx ry rz
   end
   begin
      id 30
      name RightToeBase
      direction 0.000000 0.000000 1.000000
      length 2.952750
      axis 0.0 0.0 0.0 xyz
      dof rx ry rz
   end
:hierarchy
   begin
      root Spine_dum LeftUpLeg_dum RightUpLeg_dum
      Spine_dum Spine
      LeftUpLeg_dum LeftUpLeg
      RightUpLeg_dum RightUpLeg
      Spine Spine_dum1 Spine_dum2 Spine_dum3
      Spine_dum1 Head
      Spine_dum2 LeftShoulder
      Spine_dum3 RightShoulder
      LeftShoulder LeftArm
      LeftArm LeftForeArm
      LeftForeArm LeftHand
      LeftHand LeftHand_dum1 LeftHand_dum2
      LeftHand_dum1 LeftHandThumb1
      RightShoulder RightArm
      RightArm RightForeArm
      RightForeArm RightHand
      RightHand RightHand_dum1 RightHand_dum2
      RightHand_dum1 RightHandThumb1
      LeftUpLeg LeftLeg
      LeftLeg LeftFoot
      LeftFoot LeftToeBase
      RightUpLeg RightLeg
      RightLeg RightFoot
      RightFoot RightToeBase
   end

# File created by Blade
# Date/Time:  Tue Apr 07 21:33:03 2015
# Frame Rate: 120.000 fps
#------------------------------------------------------
:FULLY-SPECIFIED
:DEGREES
79
root -0.975259 32.934243 0.015197 10.202764 1.718085 -2.425654
Spine -13.147750 -6.361505 2.163011
Head 15.191359 -0.483881 -2.769514
LeftShoulder -20.762629 41.249198 17.763262
LeftArm 58.284271 -52.218132 -63.613054
LeftForeArm 4.647694 0.000000 -1.338899
LeftHand 5.054329 -0.000000 9.791734
LeftHandThumb1 -26.253704 0.000000 33.147579
RightShoulder -7.713578 1.315868 -29.891013
RightArm 12.844777 12.730959 42.423906
RightForeArm -10.843911 -0.000000 2.850904
RightHand 2.799798 0.000000 -2.064307
RightHandThumb1 -24.326973 -0.000000 -32.862282
LeftUpLeg -5.177267 -5.206256 4.254368
LeftLeg -3.682863 -0.000000 0.000000
LeftFoot -4.833335 6.552035 -19.961813
LeftToeBase -6.028070 -0.000000 0.000000
RightUpLeg -4.477211 1.634474 2.951715
RightLeg -4.482686 -0.000000 0.000000
RightFoot -4.418343 -12.027134 8.665960
RightToeBase -1.804831 -0.000000 0.000000
80
root -0.975718 32.934289 0.011334 10.216706 1.735314 -2.417767
Spine -13.167312 -6.373765 2.172144
Head 15.322107 -0.231911 -2.873824
LeftShoulder -20.879884 41.411561 17.439205
LeftArm 58.282099 -51.499642 -63.409767
LeftForeArm 4.471737 -0.000000 -1.665450
LeftHand 5.154285 -0.000000 9.836724
LeftHandThumb1 -26.253704 0.000000 33.147579
RightShoulder -7.703659 1.003898 -29.665184
RightArm 13.079416 12.637739 42.901021
RightForeArm -10.744671 -0.000000 3.027432
RightHand 2.766765 -0.000000 -1.930202
RightHandThumb1 -24.326973 -0.000000 -32.862282
LeftUpLeg -5.197763 -5.205178 4.254947
LeftLeg -3.689672 -0.000000 0.000000
LeftFoot -4.804803 6.521201 -19.980040
LeftToeBase -6.051734 -0.000000 0.000000
RightUpLeg -4.503609 1.626613 2.947713
RightLeg -4.469164 -0.000000 0.000000
RightFoot -4.420041 -12.048950 8.653088
RightToeBase -1.844638 -0.000000 0.000000
81
root -0.977187 32.934464 0.010529 10.220852 1.751666 -2.408609
Spine -13.191194 -6.382305 2.182080
Head 15.481007 0.043192 -3.000733
LeftShoulder -21.004853 41.637633 17.075716
LeftArm 58.359874 -50.744942 -63.253678
LeftForeArm 4.236119 -0.000000 -1.985870
LeftHand 5.031403 -0.000000 9.899544
LeftHandThumb1 -26.253704 0.000000 33.147579
RightShoulder -7.648730 0.760525 -29.426357
RightArm 13.200996 12.378310 43.336416
RightForeArm -10.459777 -0.000000 3.202745
RightHand 2.942934 -0.000000 -2.314606
RightHandThumb1 -24.326973 -0.000000 -32.862282
LeftUpLeg -5.201300 -5.182254 4.251890
LeftLeg -3.700588 -0.000000 0.000000
LeftFoot -4.768735 6.468993 -19.976794
LeftToeBase -6.039040 -0.000000 0.000000
RightUpLeg -4.503480 1.641207 2.942707
RightLeg -4.483113 -0.000000 0.000000
RightFoot -4.426342 -12.094036 8.649472
RightToeBase -1.815305 -0.000000 0.000000
82
root -0.979178 32.935408 0.009330 10.221652 1.759501 -2.403362
Spine -13.211362 -6.384625 2.189352
Head 15.652754 0.351988 -3.128878
LeftShoulder -21.089608 41.847666 16.775964
LeftArm 58.305962 -49.912322 -63.078699
LeftForeArm 4.044819 -0.000000 -2.282746
LeftHand 5.175359 -0.000000 9.775683
LeftHandThumb1 -26.253704 0.000000 33.147579
RightShoulder -7.615053 0.540169 -29.191867
RightArm 13.355164 11.882368 43.808951
RightForeArm -10.154976 -0.000000 3.322245
RightHand 2.946881 -0.000000 -2.141972
RightHandThumb1 -24.326973 -0.000000 -32.862282
LeftUpLeg -5.198829 -5.188638 4.256157
LeftLeg -3.717147 -0.000000 0.000000
LeftFoot -4.740979 6.450443 -20.051953
LeftToeBase -6.061614 -0.000000 0.000000
RightUpLeg -4.505955 1.621561 2.945020
RightLeg -4.482697 -0.000000 0.000000
RightFoot -4.418315 -12.090375 8.649594
RightToeBase -1.821513 -0.000000 0.000000
83
root -0.979988 32.936060 0.007987 10.205571 1.742825 -2.392756
Spine -13.207156 -6.364295 2.192196
Head 15.831822 0.695950 -3.274418
LeftShoulder -21.137085 42.082158 16.484346
LeftArm 58.321810 -49.129179 -63.099989
LeftForeArm 3.741317 0.000000 -2.551349
LeftHand 5.399711 -0.000000 9.495208
LeftHandThumb1 -26.253704 0.000000 33.147579
RightShoulder -7.546747 0.437771 -28.958257
RightArm 13.374274 11.412742 44.335919
RightForeArm -10.176940 0.000000 3.523528
RightHand 3.298582 -0.000000 -2.326015
RightHandThumb1 -24.326973 -0.000000 -32.862282
LeftUpLeg -5.178027 -5.162110 4.244645
LeftLeg -3.726614 -0.000000 0.000000
LeftFoot -4.707180 6.430376 -20.046827
LeftToeBase -6.090953 -0.000000 0.000000
RightUpLeg -4.494440 1.630709 2.933649
RightLeg -4.480649 -0.000000 0.000000
RightFoot -4.416452 -12.087844 8.669750
RightToeBase -1.807186 -0.000000 0.000000
84
root -0.983889 32.937165 0.007615 10.217977 1.757757 -2.397739
Spine -13.249834 -6.390521 2.222432
Head 16.020036 1.054005 -3.425387
LeftShoulder -21.186699 42.357773 16.179509
LeftArm 58.351153 -48.353354 -63.209331
LeftForeArm 3.392209 0.000000 -2.759626
LeftHand 5.578144 -0.000000 9.158340
LeftHandThumb1 -26.253704 0.000000 33.147579
RightShoulder -7.450299 0.211166 -28.726696
RightArm 13.460580 10.999422 44.950491
RightForeArm -10.191277 -0.000000 3.737961
RightHand 3.501277 -0.000000 -2.171452
RightHandThumb1 -24.326973 -0.000000 -32.862282
LeftUpLeg -5.184093 -5.184475 4.267282
LeftLeg -3.748317 -0.000000 0.000000
LeftFoot -4.668963 6.422864 -20.055774
LeftToeBase -6.101912 -0.000000 0.000000
RightUpLeg -4.503251 1.615148 2.947510
RightLeg -4.490924 -0.000000 0.000000
RightFoot -4.393015 -12.089755 8.645486
RightToeBase -1.820974 -0.000000 0.000000
